%TF.GenerationSoftware,KiCad,Pcbnew,8.0.8*%
%TF.CreationDate,2025-05-29T20:22:18+02:00*%
%TF.ProjectId,5V_power_supply,35565f70-6f77-4657-925f-737570706c79,rev?*%
%TF.SameCoordinates,Original*%
%TF.FileFunction,Legend,Top*%
%TF.FilePolarity,Positive*%
%FSLAX46Y46*%
G04 Gerber Fmt 4.6, Leading zero omitted, Abs format (unit mm)*
G04 Created by KiCad (PCBNEW 8.0.8) date 2025-05-29 20:22:18*
%MOMM*%
%LPD*%
G01*
G04 APERTURE LIST*
%ADD10C,0.150000*%
%ADD11C,0.120000*%
G04 APERTURE END LIST*
D10*
X140388095Y-95954819D02*
X140388095Y-96764342D01*
X140388095Y-96764342D02*
X140435714Y-96859580D01*
X140435714Y-96859580D02*
X140483333Y-96907200D01*
X140483333Y-96907200D02*
X140578571Y-96954819D01*
X140578571Y-96954819D02*
X140769047Y-96954819D01*
X140769047Y-96954819D02*
X140864285Y-96907200D01*
X140864285Y-96907200D02*
X140911904Y-96859580D01*
X140911904Y-96859580D02*
X140959523Y-96764342D01*
X140959523Y-96764342D02*
X140959523Y-95954819D01*
X141959523Y-96954819D02*
X141388095Y-96954819D01*
X141673809Y-96954819D02*
X141673809Y-95954819D01*
X141673809Y-95954819D02*
X141578571Y-96097676D01*
X141578571Y-96097676D02*
X141483333Y-96192914D01*
X141483333Y-96192914D02*
X141388095Y-96240533D01*
X143745833Y-96804819D02*
X143412500Y-96328628D01*
X143174405Y-96804819D02*
X143174405Y-95804819D01*
X143174405Y-95804819D02*
X143555357Y-95804819D01*
X143555357Y-95804819D02*
X143650595Y-95852438D01*
X143650595Y-95852438D02*
X143698214Y-95900057D01*
X143698214Y-95900057D02*
X143745833Y-95995295D01*
X143745833Y-95995295D02*
X143745833Y-96138152D01*
X143745833Y-96138152D02*
X143698214Y-96233390D01*
X143698214Y-96233390D02*
X143650595Y-96281009D01*
X143650595Y-96281009D02*
X143555357Y-96328628D01*
X143555357Y-96328628D02*
X143174405Y-96328628D01*
X144698214Y-96804819D02*
X144126786Y-96804819D01*
X144412500Y-96804819D02*
X144412500Y-95804819D01*
X144412500Y-95804819D02*
X144317262Y-95947676D01*
X144317262Y-95947676D02*
X144222024Y-96042914D01*
X144222024Y-96042914D02*
X144126786Y-96090533D01*
X143216666Y-79849819D02*
X143216666Y-80564104D01*
X143216666Y-80564104D02*
X143169047Y-80706961D01*
X143169047Y-80706961D02*
X143073809Y-80802200D01*
X143073809Y-80802200D02*
X142930952Y-80849819D01*
X142930952Y-80849819D02*
X142835714Y-80849819D01*
X144216666Y-80849819D02*
X143645238Y-80849819D01*
X143930952Y-80849819D02*
X143930952Y-79849819D01*
X143930952Y-79849819D02*
X143835714Y-79992676D01*
X143835714Y-79992676D02*
X143740476Y-80087914D01*
X143740476Y-80087914D02*
X143645238Y-80135533D01*
X137699405Y-96804819D02*
X137699405Y-95804819D01*
X137699405Y-95804819D02*
X137937500Y-95804819D01*
X137937500Y-95804819D02*
X138080357Y-95852438D01*
X138080357Y-95852438D02*
X138175595Y-95947676D01*
X138175595Y-95947676D02*
X138223214Y-96042914D01*
X138223214Y-96042914D02*
X138270833Y-96233390D01*
X138270833Y-96233390D02*
X138270833Y-96376247D01*
X138270833Y-96376247D02*
X138223214Y-96566723D01*
X138223214Y-96566723D02*
X138175595Y-96661961D01*
X138175595Y-96661961D02*
X138080357Y-96757200D01*
X138080357Y-96757200D02*
X137937500Y-96804819D01*
X137937500Y-96804819D02*
X137699405Y-96804819D01*
X139223214Y-96804819D02*
X138651786Y-96804819D01*
X138937500Y-96804819D02*
X138937500Y-95804819D01*
X138937500Y-95804819D02*
X138842262Y-95947676D01*
X138842262Y-95947676D02*
X138747024Y-96042914D01*
X138747024Y-96042914D02*
X138651786Y-96090533D01*
X135833333Y-85859580D02*
X135785714Y-85907200D01*
X135785714Y-85907200D02*
X135642857Y-85954819D01*
X135642857Y-85954819D02*
X135547619Y-85954819D01*
X135547619Y-85954819D02*
X135404762Y-85907200D01*
X135404762Y-85907200D02*
X135309524Y-85811961D01*
X135309524Y-85811961D02*
X135261905Y-85716723D01*
X135261905Y-85716723D02*
X135214286Y-85526247D01*
X135214286Y-85526247D02*
X135214286Y-85383390D01*
X135214286Y-85383390D02*
X135261905Y-85192914D01*
X135261905Y-85192914D02*
X135309524Y-85097676D01*
X135309524Y-85097676D02*
X135404762Y-85002438D01*
X135404762Y-85002438D02*
X135547619Y-84954819D01*
X135547619Y-84954819D02*
X135642857Y-84954819D01*
X135642857Y-84954819D02*
X135785714Y-85002438D01*
X135785714Y-85002438D02*
X135833333Y-85050057D01*
X136214286Y-85050057D02*
X136261905Y-85002438D01*
X136261905Y-85002438D02*
X136357143Y-84954819D01*
X136357143Y-84954819D02*
X136595238Y-84954819D01*
X136595238Y-84954819D02*
X136690476Y-85002438D01*
X136690476Y-85002438D02*
X136738095Y-85050057D01*
X136738095Y-85050057D02*
X136785714Y-85145295D01*
X136785714Y-85145295D02*
X136785714Y-85240533D01*
X136785714Y-85240533D02*
X136738095Y-85383390D01*
X136738095Y-85383390D02*
X136166667Y-85954819D01*
X136166667Y-85954819D02*
X136785714Y-85954819D01*
X135833333Y-82859580D02*
X135785714Y-82907200D01*
X135785714Y-82907200D02*
X135642857Y-82954819D01*
X135642857Y-82954819D02*
X135547619Y-82954819D01*
X135547619Y-82954819D02*
X135404762Y-82907200D01*
X135404762Y-82907200D02*
X135309524Y-82811961D01*
X135309524Y-82811961D02*
X135261905Y-82716723D01*
X135261905Y-82716723D02*
X135214286Y-82526247D01*
X135214286Y-82526247D02*
X135214286Y-82383390D01*
X135214286Y-82383390D02*
X135261905Y-82192914D01*
X135261905Y-82192914D02*
X135309524Y-82097676D01*
X135309524Y-82097676D02*
X135404762Y-82002438D01*
X135404762Y-82002438D02*
X135547619Y-81954819D01*
X135547619Y-81954819D02*
X135642857Y-81954819D01*
X135642857Y-81954819D02*
X135785714Y-82002438D01*
X135785714Y-82002438D02*
X135833333Y-82050057D01*
X136785714Y-82954819D02*
X136214286Y-82954819D01*
X136500000Y-82954819D02*
X136500000Y-81954819D01*
X136500000Y-81954819D02*
X136404762Y-82097676D01*
X136404762Y-82097676D02*
X136309524Y-82192914D01*
X136309524Y-82192914D02*
X136214286Y-82240533D01*
D11*
%TO.C,U1*%
X143000000Y-95410000D02*
X139240000Y-95410000D01*
X143000000Y-88590000D02*
X139240000Y-88590000D01*
X139240000Y-95410000D02*
X139240000Y-94150000D01*
X139240000Y-88590000D02*
X139240000Y-89850000D01*
X144520000Y-95640000D02*
X144040000Y-95640000D01*
X144280000Y-95310000D01*
X144520000Y-95640000D01*
G36*
X144520000Y-95640000D02*
G01*
X144040000Y-95640000D01*
X144280000Y-95310000D01*
X144520000Y-95640000D01*
G37*
%TO.C,R1*%
X143685436Y-97265000D02*
X144139564Y-97265000D01*
X143685436Y-98735000D02*
X144139564Y-98735000D01*
%TO.C,J1*%
X142220000Y-81395000D02*
X143550000Y-81395000D01*
X142220000Y-82725000D02*
X142220000Y-81395000D01*
X142220000Y-83995000D02*
X142220000Y-86595000D01*
X142220000Y-83995000D02*
X144880000Y-83995000D01*
X142220000Y-86595000D02*
X144880000Y-86595000D01*
X144880000Y-83995000D02*
X144880000Y-86595000D01*
%TO.C,D1*%
X136752500Y-97040000D02*
X136752500Y-98960000D01*
X136752500Y-98960000D02*
X139437500Y-98960000D01*
X139437500Y-97040000D02*
X136752500Y-97040000D01*
%TO.C,C2*%
X138238748Y-84775000D02*
X138761252Y-84775000D01*
X138238748Y-86245000D02*
X138761252Y-86245000D01*
%TO.C,C1*%
X138238748Y-81765000D02*
X138761252Y-81765000D01*
X138238748Y-83235000D02*
X138761252Y-83235000D01*
%TD*%
M02*
